HIERARCHY
ROOT Hips
{
  OFFSET -4.44304 92.974 -5.67665
  CHANNELS 6 Xposition Yposition Zposition Zrotation Xrotation Yrotation
  JOINT ToSpine
  {
    OFFSET -2.69724 7.43032 -0.144315
    CHANNELS 3 Zrotation Xrotation Yrotation
    JOINT Spine
    {
      OFFSET -0.0310711 10.7595 1.96963
      CHANNELS 3 Zrotation Xrotation Yrotation
      JOINT Spine1
      {
        OFFSET 13.1342 3.43533 0.764692
        CHANNELS 3 Zrotation Xrotation Yrotation
        JOINT Neck
        {
          OFFSET 29.8703 7.82586 -0.130764
          CHANNELS 3 Zrotation Xrotation Yrotation
          JOINT Head
          {
            OFFSET 9.52751 0.295786 -0.907742
            CHANNELS 3 Zrotation Xrotation Yrotation
            End Site
            {
              OFFSET 16.4037 0.713936 2.7358
            }
          }
        }
        JOINT LeftShoulder
        {
          OFFSET 27.5574 4.95586 2.47156
          CHANNELS 3 Zrotation Xrotation Yrotation
          JOINT LeftArm
          {
            OFFSET 1.20734 -0.998971 20.1238
            CHANNELS 3 Zrotation Xrotation Yrotation
            JOINT LeftForeArm
            {
              OFFSET 26.8049 -0.0536703 -0.155908
              CHANNELS 3 Zrotation Xrotation Yrotation
              JOINT LeftHand
              {
                OFFSET 26.6817 0 0.320147
                CHANNELS 3 Zrotation Xrotation Yrotation
                End Site
                {
                  OFFSET 18.6119 0 0.382219
                }
              }
            }
          }
        }
        JOINT RightShoulder
        {
          OFFSET 27.5927 4.71444 -2.65209
          CHANNELS 3 Zrotation Xrotation Yrotation
          JOINT RightArm
          {
            OFFSET 2.83739 -1.17114 -18.7564
            CHANNELS 3 Zrotation Xrotation Yrotation
            JOINT RightForeArm
            {
              OFFSET 28.839 -0.0548439 1.22491
              CHANNELS 3 Zrotation Xrotation Yrotation
              JOINT RightHand
              {
                OFFSET 26.5114 0 -0.101894
                CHANNELS 3 Zrotation Xrotation Yrotation
                End Site
                {
                  OFFSET 18.2168 0 0
                }
              }
            }
          }
        }
      }
    }
  }
  JOINT LeftUpLeg
  {
    OFFSET -4.76168 -1.9167 -10.2353
    CHANNELS 3 Zrotation Xrotation Yrotation
    JOINT LeftLeg
    {
      OFFSET 2.55951 -42.0585 -8.02213
      CHANNELS 3 Zrotation Xrotation Yrotation
      JOINT LeftFoot
      {
        OFFSET 3.16357 -42.5282 -3.95426
        CHANNELS 3 Zrotation Xrotation Yrotation
        JOINT LeftToeBase
        {
          OFFSET 0.346054 -6.02161 12.8035
          CHANNELS 3 Zrotation Xrotation Yrotation
          End Site
          {
            OFFSET 0.134235 -1.35082 5.13018
          }
        }
      }
    }
  }
  JOINT RightUpLeg
  {
    OFFSET -4.94151 -1.41743 10.6446
    CHANNELS 3 Zrotation Xrotation Yrotation
    JOINT RightLeg
    {
      OFFSET -2.56294 -42.0364 -7.94377
      CHANNELS 3 Zrotation Xrotation Yrotation
      JOINT RightFoot
      {
        OFFSET -3.0952 -42.555 -4.02241
        CHANNELS 3 Zrotation Xrotation Yrotation
        JOINT RightToeBase
        {
          OFFSET -0.0828122 -6.13587 12.8035
          CHANNELS 3 Zrotation Xrotation Yrotation
          End Site
          {
            OFFSET -0.131328 -1.35082 5.13018
          }
        }
      }
    }
  }
}
MOTION
Frames:	8
Frame Time:	0.0333333
-1.30825 86.3594 -37.5678 74.4027 -25.1579 -0.919822 -70.1915 0 88.8779 105.298 74.0179 -18.4925 3.36742 21.6862 10.8964 -125.5 33.7527 156.633 162.791 75.6655 -132.413 1.2505 -7.22112 -16.2397 -53.3247 35.6939 -109.987 4.53282 -3.24675 -124.167 0.420957 0.000574484 0.358661 -1.7442 5.48821 46.3341 -100.574 -0.660041 74.5404 4.92117 -6.30037 38.5133 0.586761 -0.000824366 0.0646651 -36.5513 19.5563 91.0805 -9.73302 68.6649 -3.52539 0.742189 -22.8229 -1.88592 6.04251 -14.5882 18.7961 -41.1957 -22.4512 78.6452 0.936145 36.5886 -4.41882 -0.38256 6.31402 -0.267271 1.24487 -11.917 3.43712 
-1.37786 86.3813 -37.3825 74.2682 -25.1109 -1.08732 -70.1915 0 88.8779 105.714 73.9777 -19.2403 2.96609 21.6443 10.9957 -124.931 33.578 155.606 165.105 76.0931 -133.892 1.23544 -7.37963 -16.0567 -52.1517 35.3519 -111.404 3.98626 -2.74881 -123.081 0.420957 0.000574484 0.358661 -1.71847 5.37206 46.5564 -101.89 -0.179576 74.1216 6.48278 -7.54501 41.1343 0.586761 -0.000824366 0.0646651 -36.5349 19.6746 91.1534 -9.83771 68.5508 -4.37958 0.494151 -22.4871 -1.878 6.4879 -15.2774 19.4306 -40.4683 -22.2247 79.6785 0.96411 37.543 -4.50488 0.0940758 6.40504 -0.361394 1.348 -12.337 2.66519 
-1.52989 86.5013 -37.0489 74.2263 -25.241 -1.41578 -70.1915 0 88.8779 105.713 74.1068 -20.1444 2.61299 21.532 11.7825 -124.119 33.758 156.055 163.692 76.0136 -131.421 1.21192 -7.83645 -16.4364 -52.1701 35.1512 -112.954 4.15809 -2.65098 -121.063 0.420957 0.000574484 0.358661 -1.713 5.41948 46.1855 -103.85 0.163022 73.9574 7.57824 -7.60475 45.3495 0.586761 -0.000824366 0.0646651 -36.8275 19.6706 91.1727 -10.0284 68.1576 -6.38408 0.63762 -21.2264 -1.76752 7.1838 -16.3298 22.858 -39.1145 -22.4144 80.7584 1.20178 39.4963 -3.74923 -0.507968 7.01772 -0.296926 1.42605 -13.2789 4.20098 
-1.7133 86.5107 -36.5444 74.2287 -25.9246 -1.46773 -70.1915 0 88.8779 105.592 74.2365 -20.4259 2.76324 21.5362 12.2595 -123.888 34.053 156.778 162.229 75.9274 -129.702 1.2042 -7.91726 -16.3331 -52.9938 34.3841 -116.446 5.95766 -3.30264 -117.738 0.420957 0.000574484 0.358661 -1.66689 5.37758 45.6446 -107.098 0.040721 74.994 7.66783 -6.4964 50.146 0.586761 -0.000824366 0.0646651 -37.274 20.4292 91.4367 -9.60747 67.6871 -5.93317 0.377155 -21.0619 -1.77325 7.28339 -16.4495 21.6575 -36.9098 -21.9122 83.1674 1.94838 42.7921 0.0106469 -0.875044 7.85356 -0.273622 1.69164 -14.4628 2.00584 
-1.96048 86.5396 -35.7863 73.9548 -26.6365 -1.67175 -70.1915 0 88.8779 103.588 74.3986 -18.318 3.34234 21.609 12.0435 -123.872 34.2459 157.786 161.807 75.7889 -129.334 1.17611 -8.3286 -16.3599 -55.1265 32.5365 -121.295 8.98822 -4.1448 -113.589 0.420957 0.000574484 0.358661 -1.5892 5.32974 44.5276 -110.674 -0.515145 77.2848 4.85714 -3.42714 55.2624 0.586761 -0.000824366 0.0646651 -37.5747 21.3038 91.6421 -8.9993 67.0912 -5.07755 -0.573008 -21.7047 -1.88659 6.70816 -15.588 19.5408 -35.0514 -21.7044 85.1022 2.56993 44.0758 4.47584 -4.3265 9.40604 0.332766 1.98229 -16.4163 2.7634 
-2.15269 86.7107 -34.7585 73.9206 -26.9837 -2.00816 -70.1915 0 88.8779 103.395 74.158 -18.1505 3.24426 21.4746 11.4968 -123.548 34.2991 158.604 161.392 75.5622 -128.577 1.12474 -9.08106 -16.5795 -58.1523 29.482 -126.896 10.6268 -4.05791 -109.762 0.420957 0.000574484 0.358661 -1.72271 5.73748 44.6414 -114.784 0.660762 80.7036 2.83407 -1.65502 60.4703 0.586761 -0.000824366 0.0646651 -38.4129 21.8142 91.8133 -8.73265 65.9848 -6.66027 -0.187247 -19.8242 -1.69995 7.77295 -17.1097 21.6408 -34.9715 -21.6989 87.0167 2.42487 40.9969 4.67563 -3.47123 10.1078 0.123707 1.6775 -14.5498 0.424199 
-2.32947 86.7688 -33.6626 73.623 -27.1304 -1.99406 -70.1915 0 88.8779 102.363 74.0706 -16.9468 3.18314 21.2707 11.7548 -123.884 34.5162 158.529 162.942 76.0364 -130.501 1.03786 -10.2848 -16.4428 -61.6914 27.4474 -133.168 12.7094 -3.83304 -105.676 0.420957 0.000574484 0.358661 -1.64833 5.79913 43.0571 -118.727 1.67602 85.2049 1.54952 -0.7844 64.5065 0.586761 -0.000824366 0.0646651 -38.6231 22.7638 91.7397 -7.86287 65.1047 -5.0848 -1.34086 -20.8029 -1.84599 6.29976 -14.9034 17.857 -35.3225 -22.9958 85.6589 1.3395 35.2373 -1.14996 -3.51318 11.4444 0.0967288 0.724964 -3.22243 -1.71851 
-2.3719 87.1176 -32.0752 73.3732 -26.6686 -2.34104 -70.1915 0 88.8779 99.4541 73.713 -13.8204 3.4718 20.9473 10.8986 -123.781 34.8238 158.396 162.791 76.4281 -130.803 0.945626 -11.6276 -16.0298 -64.978 25.9273 -138.973 13.4002 -3.13281 -102.117 0.420957 0.000574484 0.358661 -1.74105 6.39256 41.8395 -122.529 2.6713 89.9561 0.728769 -0.344987 67.4673 0.586761 -0.000824366 0.0646651 -39.4922 23.1585 91.6735 -7.48373 63.2928 -7.15 -1.52564 -18.836 -1.66598 6.87758 -15.8398 20.0059 -37.0981 -25.4671 80.3697 0.522412 28.6629 -2.09525 -4.35223 17.3896 -0.00746877 -1.12834 3.87539 2.96017 
